<svg xmlns="http://www.w3.org/2000/svg" viewBox="0 0 32 32" fill="currentColor"
    class="fill-primary-700 group-hover:fill-primary-400" style="width: 40px;">
    <path
        d="M27 4C26.76 4 26.54 4.085 26.368 4.225L14.742 13.737L17.953 3.303C17.983 3.207 18 3.106 18 3C18 2.448 17.552 2 17 2C16.549 2 16.168 2.299 16.043 2.709L12.533 14.118L9.76999 10.363C9.76999 10.363 9.76999 10.363 9.76899 10.362C9.58599 10.141 9.30899 10 8.99899 10C8.44699 10 7.99899 10.448 7.99899 11C7.99899 11.242 8.08499 11.464 8.22799 11.637L10.993 15.395L4.89899 16.004C4.39399 16.054 3.99899 16.48 3.99899 16.999C3.99899 17.551 4.44699 17.999 4.99899 17.999C5.03299 17.999 5.06599 17.997 5.09799 17.994L10.155 17.488L4.36499 22.225C4.14199 22.408 3.99899 22.687 3.99899 22.998C3.99899 23.55 4.44699 23.998 4.99899 23.998C5.23899 23.998 5.45899 23.913 5.63199 23.772L10.883 19.476L8.04599 28.695C8.01599 28.791 7.99899 28.892 7.99899 28.998C7.99899 29.55 8.44699 29.998 8.99899 29.998C9.25099 29.998 9.48099 29.904 9.65699 29.75C9.65699 29.75 25.663 15.745 25.665 15.743C25.87 15.56 25.999 15.295 25.999 14.998C25.999 14.446 25.551 13.998 24.999 13.998C24.965 13.998 24.932 14 24.9 14.003L16.552 14.838L27.633 5.772C27.857 5.589 27.999 5.31 27.999 4.999C27.999 4.447 27.551 3.999 26.999 3.999L27 4ZM21.989 16.306L10.991 25.929L13.75 17.125L21.989 16.306Z"></path>
</svg>